Urbanist-Italic.ufo
<glyph name="quotesingle" format="2">
  <advance width="257.5"/>
  <unicode hex="0027"/>
  <outline>
    <contour>
      <point x="126" y="878" type="line"/>
      <point x="238" y="878" type="line"/>
      <point x="311" y="1400" type="line"/>
      <point x="199" y="1400" type="line"/>
    </contour>
  </outline>
</glyph>
<glyph name="one" format="2">
  <advance width="542.5"/>
  <unicode hex="0031"/>
  <outline>
    <contour>
      <point x="163" y="0" type="line"/>
      <point x="313" y="0" type="line"/>
      <point x="509" y="1400" type="line"/>
      <point x="248" y="1400" type="line"/>
      <point x="185" y="1250" type="line"/>
      <point x="338" y="1250" type="line"/>
    </contour>
  </outline>
</glyph>
<glyph name="greater" format="2">
  <advance width="1160"/>
  <unicode hex="003E"/>
  <outline>
    <contour>
      <point x="38" y="196" type="line"/>
      <point x="1077" y="476" type="line"/>
      <point x="1111" y="723" type="line"/>
      <point x="151" y="1004" type="line"/>
      <point x="129" y="847" type="line"/>
      <point x="980" y="600" type="line"/>
      <point x="59" y="352" type="line"/>
    </contour>
  </outline>
</glyph>
<glyph name="P" format="2">
  <advance width="1052.5"/>
  <unicode hex="0050"/>
  <outline>
    <contour>
      <point x="50" y="0" type="line"/>
      <point x="200" y="0" type="line"/>
      <point x="281" y="579" type="line"/>
      <point x="589" y="579" type="line" smooth="yes"/>
      <point x="806" y="579"/>
      <point x="1008" y="753"/>
      <point x="1040" y="981" type="curve" smooth="yes"/>
      <point x="1073" y="1215"/>
      <point x="919" y="1400"/>
      <point x="695" y="1400" type="curve" smooth="yes"/>
      <point x="246" y="1400" type="line"/>
    </contour>
    <contour>
      <point x="302" y="729" type="line"/>
      <point x="378" y="1267" type="line"/>
      <point x="672" y="1267" type="line" smooth="yes"/>
      <point x="816" y="1267"/>
      <point x="915" y="1155"/>
      <point x="894" y="1006" type="curve" smooth="yes"/>
      <point x="872" y="849"/>
      <point x="732" y="729"/>
      <point x="588" y="729" type="curve" smooth="yes"/>
    </contour>
  </outline>
</glyph>
<glyph name="V" format="2">
  <advance width="1240.25"/>
  <unicode hex="0056"/>
  <outline>
    <contour>
      <point x="459" y="0" type="line"/>
      <point x="642" y="0" type="line"/>
      <point x="1348" y="1400" type="line"/>
      <point x="1186" y="1400" type="line"/>
      <point x="573" y="187" type="line"/>
      <point x="305" y="1400" type="line"/>
      <point x="148" y="1400" type="line"/>
    </contour>
  </outline>
</glyph>
<glyph name="Y" format="2">
  <advance width="1214.5"/>
  <unicode hex="0059"/>
  <outline>
    <contour>
      <point x="1103" y="1400" type="line"/>
      <point x="646" y="797" type="line"/>
      <point x="361" y="1400" type="line"/>
      <point x="188" y="1400" type="line"/>
      <point x="553" y="634" type="line"/>
      <point x="462" y="0" type="line"/>
      <point x="612" y="0" type="line"/>
      <point x="703" y="634" type="line"/>
      <point x="1283" y="1400" type="line"/>
    </contour>
  </outline>
</glyph>
<glyph name="Z" format="2">
  <advance width="1372"/>
  <unicode hex="005A"/>
  <outline>
    <contour>
      <point x="50" y="0" type="line"/>
      <point x="1182" y="0" type="line"/>
      <point x="1203" y="150" type="line"/>
      <point x="274" y="150" type="line"/>
      <point x="1359" y="1250" type="line"/>
      <point x="1378" y="1400" type="line"/>
      <point x="246" y="1400" type="line"/>
      <point x="225" y="1250" type="line"/>
      <point x="1155" y="1250" type="line"/>
      <point x="70" y="150" type="line"/>
    </contour>
  </outline>
</glyph>
<glyph name="asciicircum" format="2">
  <advance width="802"/>
  <unicode hex="005E"/>
  <outline>
    <contour>
      <point x="149" y="1000" type="line"/>
      <point x="311" y="1000" type="line"/>
      <point x="536" y="1444" type="line"/>
      <point x="634" y="1000" type="line"/>
      <point x="791" y="1000" type="line"/>
      <point x="646" y="1650" type="line"/>
      <point x="476" y="1650" type="line"/>
    </contour>
  </outline>
</glyph>
<glyph name="a" format="2">
  <advance width="1216.25"/>
  <unicode hex="0061"/>
  <outline>
    <contour>
      <point x="1016" y="1000" type="line"/>
      <point x="989" y="817" type="line"/>
      <point x="938" y="941"/>
      <point x="828" y="1028"/>
      <point x="662" y="1028" type="curve"/>
      <point x="376" y="1028"/>
      <point x="111" y="796"/>
      <point x="71" y="508" type="curve"/>
      <point x="29" y="214"/>
      <point x="236" y="-26"/>
      <point x="530" y="-26" type="curve"/>
      <point x="688" y="-26"/>
      <point x="818" y="54"/>
      <point x="904" y="178" type="curve"/>
      <point x="876" y="0" type="line"/>
      <point x="1026" y="0" type="line"/>
      <point x="1166" y="1000" type="line"/>
    </contour>
    <contour>
      <point x="536" y="120" type="curve"/>
      <point x="338" y="120"/>
      <point x="193" y="283"/>
      <point x="222" y="492" type="curve"/>
      <point x="252" y="707"/>
      <point x="448" y="882"/>
      <point x="659" y="882" type="curve"/>
      <point x="860" y="882"/>
      <point x="965" y="718"/>
      <point x="935" y="508" type="curve"/>
      <point x="905" y="296"/>
      <point x="748" y="120"/>
    </contour>
  </outline>
</glyph>
<glyph name="e" format="2">
  <advance width="1118.75"/>
  <unicode hex="0065"/>
  <outline>
    <contour>
      <point x="494" y="-26" type="curve" smooth="yes"/>
      <point x="690" y="-26"/>
      <point x="877" y="94"/>
      <point x="982" y="272" type="curve"/>
      <point x="832" y="314" type="line"/>
      <point x="751" y="197"/>
      <point x="631" y="124"/>
      <point x="499" y="124" type="curve" smooth="yes"/>
      <point x="325" y="125"/>
      <point x="207" y="257"/>
      <point x="209" y="440" type="curve"/>
      <point x="1048" y="440" type="line"/>
      <point x="1112" y="768"/>
      <point x="929" y="1028"/>
      <point x="626" y="1028" type="curve" smooth="yes"/>
      <point x="354" y="1028"/>
      <point x="101" y="796"/>
      <point x="61" y="509" type="curve" smooth="yes"/>
      <point x="19" y="214"/>
      <point x="214" y="-26"/>
    </contour>
    <contour>
      <point x="225" y="560" type="line"/>
      <point x="271" y="743"/>
      <point x="439" y="893"/>
      <point x="623" y="893" type="curve" smooth="yes"/>
      <point x="799" y="893"/>
      <point x="924" y="747"/>
      <point x="915" y="568" type="curve"/>
    </contour>
  </outline>
</glyph>
<glyph name="h" format="2">
  <advance width="1090.5"/>
  <unicode hex="0068"/>
  <outline>
    <contour>
      <point x="1015" y="531" type="line"/>
      <point x="1048" y="797"/>
      <point x="902" y="1027"/>
      <point x="639" y="1027" type="curve"/>
      <point x="514" y="1027"/>
      <point x="401" y="975"/>
      <point x="318" y="853" type="curve"/>
      <point x="411" y="1500" type="line"/>
      <point x="261" y="1500" type="line"/>
      <point x="50" y="0" type="line"/>
      <point x="201" y="0" type="line"/>
      <point x="275" y="527" type="line"/>
      <point x="302" y="720"/>
      <point x="447" y="882"/>
      <point x="623" y="882" type="curve"/>
      <point x="784" y="882"/>
      <point x="893" y="729"/>
      <point x="865" y="536" type="curve"/>
      <point x="791" y="0" type="line"/>
      <point x="941" y="0" type="line"/>
    </contour>
  </outline>
</glyph>
<glyph name="n" format="2">
  <advance width="1104.75"/>
  <unicode hex="006E"/>
  <outline>
    <contour>
      <point x="1009" y="532" type="line"/>
      <point x="1043" y="797"/>
      <point x="897" y="1028"/>
      <point x="634" y="1028" type="curve"/>
      <point x="506" y="1028"/>
      <point x="387" y="959"/>
      <point x="296" y="841" type="curve"/>
      <point x="320" y="1000" type="line"/>
      <point x="170" y="1000" type="line"/>
      <point x="30" y="0" type="line"/>
      <point x="180" y="0" type="line"/>
      <point x="254" y="528" type="line"/>
      <point x="281" y="720"/>
      <point x="434" y="883"/>
      <point x="610" y="883" type="curve"/>
      <point x="779" y="883"/>
      <point x="887" y="729"/>
      <point x="860" y="536" type="curve"/>
      <point x="785" y="0" type="line"/>
      <point x="935" y="0" type="line"/>
    </contour>
  </outline>
</glyph>
<glyph name="o" format="2">
  <advance width="1120"/>
  <unicode hex="006F"/>
  <outline>
    <contour>
      <point x="494" y="-26" type="curve" smooth="yes"/>
      <point x="766" y="-26"/>
      <point x="1019" y="206"/>
      <point x="1059" y="492" type="curve" smooth="yes"/>
      <point x="1101" y="788"/>
      <point x="906" y="1028"/>
      <point x="626" y="1028" type="curve" smooth="yes"/>
      <point x="354" y="1028"/>
      <point x="101" y="796"/>
      <point x="61" y="508" type="curve" smooth="yes"/>
      <point x="19" y="214"/>
      <point x="214" y="-26"/>
    </contour>
    <contour>
      <point x="499" y="124" type="curve" smooth="yes"/>
      <point x="313" y="124"/>
      <point x="180" y="285"/>
      <point x="209" y="492" type="curve" smooth="yes"/>
      <point x="238" y="699"/>
      <point x="419" y="878"/>
      <point x="622" y="878" type="curve" smooth="yes"/>
      <point x="812" y="878"/>
      <point x="940" y="709"/>
      <point x="911" y="508" type="curve" smooth="yes"/>
      <point x="882" y="302"/>
      <point x="701" y="124"/>
    </contour>
  </outline>
</glyph>
<glyph name="t" format="2">
  <advance width="692.5"/>
  <unicode hex="0074"/>
  <outline>
    <contour>
      <point x="684" y="850" type="line"/>
      <point x="704" y="1000" type="line"/>
      <point x="469" y="1000" type="line"/>
      <point x="518" y="1358" type="line"/>
      <point x="368" y="1358" type="line"/>
      <point x="319" y="1000" type="line"/>
      <point x="142" y="1000" type="line"/>
      <point x="121" y="850" type="line"/>
      <point x="299" y="850" type="line"/>
      <point x="178" y="0" type="line"/>
      <point x="328" y="0" type="line"/>
      <point x="449" y="850" type="line"/>
    </contour>
  </outline>
</glyph>
<glyph name="y" format="2">
  <advance width="1043.5"/>
  <unicode hex="0079"/>
  <outline>
    <contour>
      <point x="874" y="1000" type="line"/>
      <point x="471" y="206" type="line"/>
      <point x="314" y="1000" type="line"/>
      <point x="152" y="1000" type="line"/>
      <point x="369" y="1" type="line"/>
      <point x="116" y="-500" type="line"/>
      <point x="278" y="-500" type="line"/>
      <point x="1035" y="1000" type="line"/>
    </contour>
  </outline>
</glyph>
<glyph name="z" format="2">
  <advance width="1069"/>
  <unicode hex="007A"/>
  <outline>
    <contour>
      <point x="1012" y="850" type="line"/>
      <point x="1032" y="1000" type="line"/>
      <point x="178" y="1000" type="line"/>
      <point x="157" y="850" type="line"/>
      <point x="796" y="850" type="line"/>
      <point x="57" y="150" type="line"/>
      <point x="38" y="0" type="line"/>
      <point x="892" y="0" type="line"/>
      <point x="912" y="150" type="line"/>
      <point x="273" y="150" type="line"/>
    </contour>
  </outline>
</glyph>
<glyph name="currency" format="2">
  <advance width="987.5"/>
  <unicode hex="00A4"/>
  <outline>
    <contour>
      <point x="132" y="286" type="line"/>
      <point x="276" y="413" type="line" smooth="yes"/>
      <point x="388" y="317"/>
      <point x="556" y="312"/>
      <point x="696" y="407" type="curve" smooth="yes"/>
      <point x="802" y="286" type="line"/>
      <point x="889" y="365" type="line"/>
      <point x="785" y="485" type="line" smooth="yes"/>
      <point x="896" y="609"/>
      <point x="916" y="783"/>
      <point x="839" y="907" type="curve" smooth="yes"/>
      <point x="983" y="1036" type="line"/>
      <point x="913" y="1114" type="line"/>
      <point x="767" y="987" type="line" smooth="yes"/>
      <point x="660" y="1077"/>
      <point x="485" y="1080"/>
      <point x="352" y="990" type="curve" smooth="yes"/>
      <point x="243" y="1114" type="line"/>
      <point x="155" y="1036" type="line"/>
      <point x="264" y="911" type="line" smooth="yes"/>
      <point x="152" y="788"/>
      <point x="133" y="618"/>
      <point x="206" y="494" type="curve" smooth="yes"/>
      <point x="61" y="365" type="line"/>
    </contour>
    <contour>
      <point x="480" y="451" type="curve"/>
      <point x="353" y="450"/>
      <point x="257" y="555"/>
      <point x="276" y="690" type="curve"/>
      <point x="295" y="828"/>
      <point x="423" y="945"/>
      <point x="566" y="944" type="curve"/>
      <point x="697" y="943"/>
      <point x="790" y="842"/>
      <point x="771" y="707" type="curve"/>
      <point x="751" y="565"/>
      <point x="620" y="452"/>
    </contour>
  </outline>
</glyph>
<glyph name="yen" format="2">
  <advance width="1239.5"/>
  <unicode hex="00A5"/>
  <outline>
    <contour>
      <point x="475" y="0" type="line"/>
      <point x="625" y="0" type="line"/>
      <point x="651" y="188" type="line"/>
      <point x="940" y="188" type="line"/>
      <point x="956" y="301" type="line"/>
      <point x="667" y="301" type="line"/>
      <point x="689" y="454" type="line"/>
      <point x="978" y="454" type="line"/>
      <point x="993" y="567" type="line"/>
      <point x="704" y="567" type="line"/>
      <point x="715" y="634" type="line"/>
      <point x="1295" y="1400" type="line"/>
      <point x="1115" y="1400" type="line"/>
      <point x="658" y="797" type="line"/>
      <point x="374" y="1400" type="line"/>
      <point x="201" y="1400" type="line"/>
      <point x="565" y="634" type="line"/>
      <point x="554" y="567" type="line"/>
      <point x="265" y="567" type="line"/>
      <point x="250" y="454" type="line"/>
      <point x="539" y="454" type="line"/>
      <point x="517" y="301" type="line"/>
      <point x="228" y="301" type="line"/>
      <point x="212" y="188" type="line"/>
      <point x="501" y="188" type="line"/>
    </contour>
  </outline>
</glyph>
<glyph name="degree" format="2">
  <advance width="724.75"/>
  <unicode hex="00B0"/>
  <outline>
    <contour>
      <point x="413" y="798" type="curve" smooth="yes"/>
      <point x="562" y="798"/>
      <point x="703" y="917"/>
      <point x="725" y="1072" type="curve" smooth="yes"/>
      <point x="747" y="1228"/>
      <point x="639" y="1362"/>
      <point x="475" y="1362" type="curve" smooth="yes"/>
      <point x="323" y="1362"/>
      <point x="184" y="1238"/>
      <point x="163" y="1088" type="curve" smooth="yes"/>
      <point x="141" y="933"/>
      <point x="250" y="798"/>
    </contour>
    <contour>
      <point x="418" y="948" type="curve" smooth="yes"/>
      <point x="348" y="948"/>
      <point x="301" y="1002"/>
      <point x="310" y="1072" type="curve" smooth="yes"/>
      <point x="322" y="1150"/>
      <point x="393" y="1212"/>
      <point x="471" y="1212" type="curve" smooth="yes"/>
      <point x="540" y="1212"/>
      <point x="587" y="1158"/>
      <point x="578" y="1088" type="curve" smooth="yes"/>
      <point x="566" y="1010"/>
      <point x="495" y="948"/>
    </contour>
  </outline>
</glyph>
<glyph name="periodcentered" format="2">
  <advance width="328.75"/>
  <unicode hex="00B7"/>
  <outline>
    <contour>
      <point x="174" y="516" type="curve" smooth="yes"/>
      <point x="217" y="516"/>
      <point x="255" y="549"/>
      <point x="262" y="592" type="curve" smooth="yes"/>
      <point x="268" y="642"/>
      <point x="233" y="684"/>
      <point x="181" y="684" type="curve" smooth="yes"/>
      <point x="139" y="684"/>
      <point x="101" y="651"/>
      <point x="95" y="609" type="curve" smooth="yes"/>
      <point x="88" y="557"/>
      <point x="123" y="516"/>
    </contour>
  </outline>
</glyph>
<glyph name="Oslash" format="2">
  <advance width="1540"/>
  <unicode hex="00D8"/>
  <outline>
    <contour>
      <point x="326" y="-85" type="line"/>
      <point x="421" y="47" type="line"/>
      <point x="502" y="2"/>
      <point x="596" y="-26"/>
      <point x="704" y="-26" type="curve" smooth="yes"/>
      <point x="1080" y="-26"/>
      <point x="1432" y="296"/>
      <point x="1487" y="692" type="curve" smooth="yes"/>
      <point x="1520" y="931"/>
      <point x="1440" y="1140"/>
      <point x="1294" y="1272" type="curve"/>
      <point x="1395" y="1410" type="line"/>
      <point x="1273" y="1485" type="line"/>
      <point x="1177" y="1354" type="line"/>
      <point x="1097" y="1399"/>
      <point x="1002" y="1426"/>
      <point x="892" y="1426" type="curve" smooth="yes"/>
      <point x="516" y="1426"/>
      <point x="165" y="1104"/>
      <point x="109" y="708" type="curve" smooth="yes"/>
      <point x="76" y="471"/>
      <point x="158" y="261"/>
      <point x="304" y="129" type="curve"/>
      <point x="203" y="-10" type="line"/>
    </contour>
    <contour>
      <point x="394" y="260" type="line"/>
      <point x="287" y="361"/>
      <point x="233" y="519"/>
      <point x="257" y="692" type="curve" smooth="yes"/>
      <point x="301" y="1009"/>
      <point x="583" y="1276"/>
      <point x="888" y="1276" type="curve" smooth="yes"/>
      <point x="961" y="1276"/>
      <point x="1032" y="1258"/>
      <point x="1092" y="1224" type="curve"/>
    </contour>
    <contour>
      <point x="709" y="124" type="curve" smooth="yes"/>
      <point x="637" y="124"/>
      <point x="566" y="142"/>
      <point x="506" y="177" type="curve"/>
      <point x="1205" y="1141" type="line"/>
      <point x="1310" y="1039"/>
      <point x="1363" y="881"/>
      <point x="1339" y="708" type="curve" smooth="yes"/>
      <point x="1295" y="392"/>
      <point x="1013" y="124"/>
    </contour>
  </outline>
</glyph>
<glyph name="icircumflex" format="2">
  <advance width="381"/>
  <unicode hex="00EE"/>
  <outline>
    <contour>
      <point x="186" y="1000" type="line"/>
      <point x="46" y="0" type="line"/>
      <point x="196" y="0" type="line"/>
      <point x="336" y="1000" type="line"/>
    </contour>
    <component base="circumflexcomb" xOffset="-378"/>
  </outline>
</glyph>
<glyph name="gravecomb" format="2">
  <unicode hex="0300"/>
  <outline>
    <contour>
      <point x="452" y="1426" type="line"/>
      <point x="569" y="1138" type="line"/>
      <point x="639" y="1138" type="line"/>
      <point x="599" y="1426" type="line"/>
    </contour>
  </outline>
</glyph>
<glyph name="circumflexcomb" format="2">
  <unicode hex="0302"/>
  <outline>
    <contour>
      <point x="627" y="1400" type="line"/>
      <point x="492" y="1166" type="line"/>
      <point x="598" y="1166" type="line"/>
      <point x="689" y="1324" type="line"/>
      <point x="731" y="1166" type="line"/>
      <point x="832" y="1166" type="line"/>
      <point x="765" y="1400" type="line"/>
    </contour>
  </outline>
</glyph>
<glyph name="ringcomb" format="2">
  <unicode hex="030A"/>
  <outline>
    <contour>
      <point x="657" y="1120" type="curve"/>
      <point x="741" y="1120"/>
      <point x="819" y="1188"/>
      <point x="831" y="1275" type="curve"/>
      <point x="844" y="1365"/>
      <point x="779" y="1443"/>
      <point x="685" y="1443" type="curve"/>
      <point x="601" y="1443"/>
      <point x="523" y="1374"/>
      <point x="511" y="1291" type="curve"/>
      <point x="498" y="1198"/>
      <point x="564" y="1120"/>
    </contour>
    <contour>
      <point x="650" y="1191" type="curve"/>
      <point x="604" y="1191"/>
      <point x="573" y="1227"/>
      <point x="580" y="1275" type="curve"/>
      <point x="587" y="1327"/>
      <point x="638" y="1371"/>
      <point x="692" y="1371" type="curve"/>
      <point x="738" y="1371"/>
      <point x="769" y="1335"/>
      <point x="762" y="1291" type="curve"/>
      <point x="755" y="1235"/>
      <point x="704" y="1191"/>
    </contour>
  </outline>
</glyph>
<glyph name="mu" format="2">
  <advance width="1064.75"/>
  <unicode hex="03BC"/>
  <outline>
    <contour>
      <point x="-51" y="-432" type="line"/>
      <point x="99" y="-432" type="line"/>
      <point x="182" y="132" type="line"/>
      <point x="233" y="39"/>
      <point x="326" y="-27"/>
      <point x="451" y="-27" type="curve" smooth="yes"/>
      <point x="580" y="-27"/>
      <point x="699" y="43"/>
      <point x="789" y="160" type="curve"/>
      <point x="764" y="0" type="line"/>
      <point x="915" y="0" type="line"/>
      <point x="1055" y="1000" type="line"/>
      <point x="905" y="1000" type="line"/>
      <point x="831" y="474" type="line" smooth="yes"/>
      <point x="804" y="281"/>
      <point x="650" y="120"/>
      <point x="475" y="120" type="curve" smooth="yes"/>
      <point x="306" y="120"/>
      <point x="198" y="273"/>
      <point x="225" y="466" type="curve" smooth="yes"/>
      <point x="300" y="1000" type="line"/>
      <point x="150" y="1000" type="line"/>
    </contour>
  </outline>
</glyph>
<glyph name="Germandbls" format="2">
  <advance width="1136"/>
  <unicode hex="1E9E"/>
  <outline>
    <contour>
      <point x="50" y="0" type="line"/>
      <point x="200" y="0" type="line"/>
      <point x="336" y="973" type="line" smooth="yes"/>
      <point x="359" y="1133"/>
      <point x="510" y="1265"/>
      <point x="665" y="1265" type="curve" smooth="yes"/>
      <point x="787" y="1265"/>
      <point x="890" y="1236"/>
      <point x="877" y="1131" type="curve" smooth="yes"/>
      <point x="865" y="1039"/>
      <point x="582" y="797"/>
      <point x="574" y="702" type="curve" smooth="yes"/>
      <point x="567" y="637" type="line"/>
      <point x="643" y="637" type="line" smooth="yes"/>
      <point x="786" y="637"/>
      <point x="948" y="568"/>
      <point x="924" y="395" type="curve" smooth="yes"/>
      <point x="898" y="211"/>
      <point x="707" y="133"/>
      <point x="565" y="133" type="curve" smooth="yes"/>
      <point x="481" y="133" type="line"/>
      <point x="497" y="0" type="line"/>
      <point x="566" y="0" type="line" smooth="yes"/>
      <point x="777" y="0"/>
      <point x="1024" y="128"/>
      <point x="1059" y="376" type="curve" smooth="yes"/>
      <point x="1088" y="583"/>
      <point x="911" y="752"/>
      <point x="718" y="723" type="curve"/>
      <point x="932" y="957"/>
      <point x="1019" y="1029"/>
      <point x="1030" y="1112" type="curve" smooth="yes"/>
      <point x="1055" y="1289"/>
      <point x="892" y="1399"/>
      <point x="691" y="1399" type="curve" smooth="yes"/>
      <point x="445" y="1399"/>
      <point x="218" y="1200"/>
      <point x="183" y="951" type="curve" smooth="yes"/>
    </contour>
  </outline>
</glyph>
<glyph name="quoteright" format="2">
  <advance width="312"/>
  <unicode hex="2019"/>
  <unicode hex="2032"/>
  <outline>
    <contour>
      <point x="93" y="878" type="line"/>
      <point x="194" y="878" type="line"/>
      <point x="380" y="1400" type="line"/>
      <point x="228" y="1400" type="line"/>
    </contour>
  </outline>
</glyph>
<glyph name="bullet" format="2">
  <advance width="385"/>
  <unicode hex="2022"/>
  <outline>
    <contour>
      <point x="198" y="488" type="curve" smooth="yes"/>
      <point x="257" y="488"/>
      <point x="310" y="533"/>
      <point x="318" y="593" type="curve" smooth="yes"/>
      <point x="327" y="658"/>
      <point x="281" y="713"/>
      <point x="213" y="713" type="curve" smooth="yes"/>
      <point x="155" y="713"/>
      <point x="104" y="667"/>
      <point x="95" y="610" type="curve" smooth="yes"/>
      <point x="86" y="541"/>
      <point x="131" y="488"/>
    </contour>
  </outline>
</glyph>
<glyph name="perthousand" format="2">
  <advance width="1830"/>
  <unicode hex="2030"/>
  <outline>
    <contour>
      <point x="89" y="0" type="line"/>
      <point x="265" y="0" type="line"/>
      <point x="1270" y="1400" type="line"/>
      <point x="1093" y="1400" type="line"/>
    </contour>
    <contour>
      <point x="383" y="848" type="curve"/>
      <point x="511" y="848"/>
      <point x="633" y="950"/>
      <point x="652" y="1084" type="curve"/>
      <point x="672" y="1223"/>
      <point x="573" y="1338"/>
      <point x="435" y="1338" type="curve"/>
      <point x="306" y="1338"/>
      <point x="183" y="1235"/>
      <point x="165" y="1100" type="curve"/>
      <point x="145" y="960"/>
      <point x="244" y="848"/>
    </contour>
    <contour>
      <point x="381" y="960" type="curve"/>
      <point x="312" y="960"/>
      <point x="265" y="1015"/>
      <point x="275" y="1084" type="curve"/>
      <point x="285" y="1162"/>
      <point x="358" y="1225"/>
      <point x="436" y="1225" type="curve"/>
      <point x="505" y="1225"/>
      <point x="552" y="1170"/>
      <point x="542" y="1100" type="curve"/>
      <point x="531" y="1024"/>
      <point x="459" y="960"/>
    </contour>
    <contour>
      <point x="888" y="62" type="curve"/>
      <point x="1018" y="62"/>
      <point x="1140" y="169"/>
      <point x="1158" y="299" type="curve"/>
      <point x="1177" y="435"/>
      <point x="1082" y="553"/>
      <point x="940" y="553" type="curve"/>
      <point x="812" y="553"/>
      <point x="688" y="449"/>
      <point x="669" y="316" type="curve"/>
      <point x="650" y="180"/>
      <point x="747" y="62"/>
    </contour>
    <contour>
      <point x="887" y="174" type="curve"/>
      <point x="818" y="174"/>
      <point x="769" y="230"/>
      <point x="780" y="299" type="curve"/>
      <point x="790" y="376"/>
      <point x="863" y="440"/>
      <point x="941" y="440" type="curve"/>
      <point x="1009" y="440"/>
      <point x="1057" y="384"/>
      <point x="1048" y="316" type="curve"/>
      <point x="1037" y="238"/>
      <point x="964" y="174"/>
    </contour>
    <contour>
      <point x="1452" y="62" type="curve"/>
      <point x="1582" y="62"/>
      <point x="1704" y="169"/>
      <point x="1722" y="299" type="curve"/>
      <point x="1741" y="435"/>
      <point x="1646" y="553"/>
      <point x="1504" y="553" type="curve"/>
      <point x="1375" y="553"/>
      <point x="1252" y="449"/>
      <point x="1233" y="316" type="curve"/>
      <point x="1214" y="180"/>
      <point x="1311" y="62"/>
    </contour>
    <contour>
      <point x="1451" y="174" type="curve"/>
      <point x="1382" y="174"/>
      <point x="1333" y="230"/>
      <point x="1343" y="299" type="curve"/>
      <point x="1354" y="376"/>
      <point x="1427" y="440"/>
      <point x="1505" y="440" type="curve"/>
      <point x="1573" y="440"/>
      <point x="1621" y="384"/>
      <point x="1611" y="316" type="curve"/>
      <point x="1601" y="238"/>
      <point x="1528" y="174"/>
    </contour>
  </outline>
</glyph>
<glyph name="guilsinglright" format="2">
  <advance width="682.5"/>
  <unicode hex="203A"/>
  <outline>
    <contour>
      <point x="65" y="261" type="line"/>
      <point x="231" y="261" type="line"/>
      <point x="577" y="601" type="line"/>
      <point x="323" y="939" type="line"/>
      <point x="163" y="939" type="line"/>
      <point x="413" y="601" type="line"/>
    </contour>
  </outline>
</glyph>
<glyph name="zerosuperior" format="2">
  <advance width="648"/>
  <unicode hex="2070"/>
  <outline>
    <contour>
      <point x="374" y="798" type="curve" smooth="yes"/>
      <point x="509" y="798"/>
      <point x="638" y="937"/>
      <point x="664" y="1125" type="curve" smooth="yes"/>
      <point x="692" y="1320"/>
      <point x="595" y="1468"/>
      <point x="452" y="1468" type="curve" smooth="yes"/>
      <point x="317" y="1468"/>
      <point x="188" y="1328"/>
      <point x="162" y="1141" type="curve" smooth="yes"/>
      <point x="134" y="945"/>
      <point x="231" y="798"/>
    </contour>
    <contour>
      <point x="372" y="902" type="curve" smooth="yes"/>
      <point x="289" y="902"/>
      <point x="253" y="1015"/>
      <point x="268" y="1125" type="curve" smooth="yes"/>
      <point x="284" y="1236"/>
      <point x="359" y="1365"/>
      <point x="454" y="1365" type="curve" smooth="yes"/>
      <point x="536" y="1365"/>
      <point x="573" y="1251"/>
      <point x="558" y="1141" type="curve" smooth="yes"/>
      <point x="543" y="1034"/>
      <point x="465" y="902"/>
    </contour>
  </outline>
</glyph>
<glyph name="ninesuperior" format="2">
  <advance width="658.625"/>
  <unicode hex="2079"/>
  <outline>
    <contour>
      <point x="244" y="818" type="line"/>
      <point x="371" y="818" type="line"/>
      <point x="594" y="1122" type="line"/>
      <point x="603" y="1138"/>
      <point x="610" y="1154"/>
      <point x="614" y="1167" type="curve" smooth="yes"/>
      <point x="691" y="1314"/>
      <point x="598" y="1468"/>
      <point x="433" y="1468" type="curve" smooth="yes"/>
      <point x="339" y="1468"/>
      <point x="247" y="1418"/>
      <point x="207" y="1327" type="curve" smooth="yes"/>
      <point x="122" y="1175"/>
      <point x="227" y="1001"/>
      <point x="396" y="1023" type="curve"/>
    </contour>
    <contour>
      <point x="385" y="1122" type="curve" smooth="yes"/>
      <point x="339" y="1122"/>
      <point x="288" y="1151"/>
      <point x="283" y="1212" type="curve" smooth="yes"/>
      <point x="280" y="1293"/>
      <point x="351" y="1365"/>
      <point x="435" y="1365" type="curve" smooth="yes"/>
      <point x="484" y="1365"/>
      <point x="532" y="1338"/>
      <point x="538" y="1282" type="curve" smooth="yes"/>
      <point x="541" y="1198"/>
      <point x="467" y="1122"/>
    </contour>
  </outline>
</glyph>
<glyph name="seveninferior" format="2">
  <advance width="639.75"/>
  <unicode hex="2087"/>
  <outline>
    <contour>
      <point x="69" y="0" type="line"/>
      <point x="197" y="0" type="line"/>
      <point x="573" y="525" type="line"/>
      <point x="586" y="631" type="line"/>
      <point x="138" y="631" type="line"/>
      <point x="123" y="523" type="line"/>
      <point x="445" y="523" type="line"/>
    </contour>
  </outline>
</glyph>
<glyph name="eightinferior" format="2">
  <advance width="609.125"/>
  <unicode hex="2088"/>
  <outline>
    <contour>
      <point x="237" y="-31" type="curve" smooth="yes"/>
      <point x="349" y="-31"/>
      <point x="450" y="49"/>
      <point x="465" y="159" type="curve" smooth="yes"/>
      <point x="475" y="228"/>
      <point x="450" y="286"/>
      <point x="413" y="319" type="curve"/>
      <point x="457" y="356"/>
      <point x="485" y="404"/>
      <point x="492" y="452" type="curve" smooth="yes"/>
      <point x="507" y="565"/>
      <point x="427" y="647"/>
      <point x="316" y="647" type="curve" smooth="yes"/>
      <point x="214" y="647"/>
      <point x="122" y="573"/>
      <point x="107" y="469" type="curve" smooth="yes"/>
      <point x="99" y="412"/>
      <point x="118" y="362"/>
      <point x="147" y="332" type="curve"/>
      <point x="94" y="292"/>
      <point x="59" y="236"/>
      <point x="50" y="176" type="curve" smooth="yes"/>
      <point x="34" y="57"/>
      <point x="119" y="-31"/>
    </contour>
    <contour>
      <point x="235" y="76" type="curve" smooth="yes"/>
      <point x="186" y="76"/>
      <point x="149" y="109"/>
      <point x="156" y="159" type="curve" smooth="yes"/>
      <point x="164" y="219"/>
      <point x="221" y="268"/>
      <point x="279" y="268" type="curve" smooth="yes"/>
      <point x="331" y="268"/>
      <point x="367" y="227"/>
      <point x="359" y="176" type="curve" smooth="yes"/>
      <point x="351" y="117"/>
      <point x="296" y="76"/>
    </contour>
    <contour>
      <point x="277" y="376" type="curve" smooth="yes"/>
      <point x="236" y="376"/>
      <point x="207" y="411"/>
      <point x="213" y="452" type="curve" smooth="yes"/>
      <point x="220" y="504"/>
      <point x="267" y="539"/>
      <point x="317" y="539" type="curve" smooth="yes"/>
      <point x="362" y="539"/>
      <point x="392" y="512"/>
      <point x="386" y="469" type="curve" smooth="yes"/>
      <point x="379" y="419"/>
      <point x="330" y="376"/>
    </contour>
  </outline>
</glyph>
<glyph name="euro" format="2">
  <advance width="1162.25"/>
  <unicode hex="20AC"/>
  <outline>
    <contour>
      <point x="1014" y="-15" type="curve"/>
      <point x="1028" y="140" type="line"/>
      <point x="742" y="77"/>
      <point x="507" y="237"/>
      <point x="458" y="507" type="curve"/>
      <point x="784" y="511" type="line"/>
      <point x="800" y="624" type="line"/>
      <point x="446" y="624" type="line"/>
      <point x="466" y="775" type="line"/>
      <point x="821" y="775" type="line"/>
      <point x="837" y="888" type="line"/>
      <point x="513" y="884" type="line"/>
      <point x="636" y="1149"/>
      <point x="920" y="1327"/>
      <point x="1194" y="1263" type="curve"/>
      <point x="1207" y="1416" type="line"/>
      <point x="859" y="1482"/>
      <point x="493" y="1253"/>
      <point x="351" y="892" type="curve"/>
      <point x="134" y="888" type="line"/>
      <point x="118" y="775" type="line"/>
      <point x="315" y="775" type="line"/>
      <point x="294" y="624" type="line"/>
      <point x="97" y="624" type="line"/>
      <point x="81" y="511" type="line"/>
      <point x="300" y="515" type="line"/>
      <point x="341" y="160"/>
      <point x="642" y="-82"/>
    </contour>
  </outline>
</glyph>
<glyph name="leftArrow" format="2">
  <advance width="1373.5"/>
  <unicode hex="2190"/>
  <outline>
    <contour>
      <point x="547" y="252" type="line"/>
      <point x="664" y="358" type="line"/>
      <point x="389" y="675" type="line"/>
      <point x="1318" y="675" type="line"/>
      <point x="1339" y="825" type="line"/>
      <point x="414" y="825" type="line"/>
      <point x="775" y="1143" type="line"/>
      <point x="680" y="1248" type="line"/>
      <point x="115" y="750" type="line"/>
    </contour>
  </outline>
</glyph>
<glyph name="upDownArrow" format="2">
  <advance width="1157.75"/>
  <unicode hex="2195"/>
  <outline>
    <contour>
      <point x="508" y="-20" type="line"/>
      <point x="1075" y="479" type="line"/>
      <point x="980" y="586" type="line"/>
      <point x="619" y="267" type="line"/>
      <point x="757" y="1233" type="line"/>
      <point x="1032" y="915" type="line"/>
      <point x="1151" y="1022" type="line"/>
      <point x="719" y="1520" type="line"/>
      <point x="153" y="1022" type="line"/>
      <point x="247" y="915" type="line"/>
      <point x="607" y="1233" type="line"/>
      <point x="469" y="267" type="line"/>
      <point x="195" y="586" type="line"/>
      <point x="77" y="479" type="line"/>
    </contour>
  </outline>
</glyph>
<glyph name="northEastArrow" format="2">
  <advance width="1070.75"/>
  <unicode hex="2197"/>
  <outline>
    <contour>
      <point x="160" y="295" type="line"/>
      <point x="906" y="949" type="line"/>
      <point x="841" y="500" type="line"/>
      <point x="991" y="500" type="line"/>
      <point x="1090" y="1205" type="line"/>
      <point x="384" y="1205" type="line"/>
      <point x="363" y="1055" type="line"/>
      <point x="811" y="1055" type="line"/>
      <point x="66" y="401" type="line"/>
    </contour>
  </outline>
</glyph>
<glyph name="lozenge" format="2">
  <advance width="885"/>
  <unicode hex="25CA"/>
  <outline>
    <contour>
      <point x="259" y="0" type="line"/>
      <point x="488" y="0" type="line"/>
      <point x="853" y="702" type="line"/>
      <point x="684" y="1400" type="line"/>
      <point x="451" y="1400" type="line"/>
      <point x="88" y="702" type="line"/>
    </contour>
    <contour>
      <point x="388" y="134" type="line"/>
      <point x="247" y="702" type="line"/>
      <point x="553" y="1270" type="line"/>
      <point x="697" y="702" type="line"/>
    </contour>
  </outline>
</glyph>
